<svg xmlns="http://www.w3.org/2000/svg" width="484" height="377" viewBox="0 0 484 377">
  <title>Shooting HooPs route</title>
  <path id="shooting-hoops-route" d="M 139.00 79.00 L 142.55 78.97 L 146.07 78.95 L 149.57 78.92 L 153.06 78.91 L 156.54 78.89 L 160.02 78.88 L 163.51 78.88 L 167.00 78.88 L 170.51 78.88 L 174.04 78.88 L 177.60 78.89 L 181.19 78.91 L 184.82 78.92 L 188.49 78.95 L 192.22 78.97 L 196.00 79.00 L 199.85 79.04 L 203.76 79.09 L 207.72 79.15 L 211.73 79.23 L 215.79 79.31 L 219.88 79.39 L 223.99 79.48 L 228.12 79.56 L 232.27 79.65 L 236.42 79.73 L 240.57 79.80 L 244.70 79.87 L 248.82 79.92 L 252.92 79.96 L 256.98 79.99 L 261.00 80.00 L 265.00 79.99 L 269.00 79.96 L 272.99 79.92 L 276.98 79.87 L 280.97 79.80 L 284.95 79.73 L 288.92 79.65 L 292.88 79.56 L 296.82 79.48 L 300.76 79.39 L 304.68 79.31 L 308.58 79.23 L 312.46 79.15 L 316.33 79.09 L 320.18 79.04 L 324.00 79.00 L 327.84 78.95 L 331.74 78.87 L 335.67 78.77 L 339.62 78.65 L 343.57 78.52 L 347.52 78.40 L 351.44 78.28 L 355.31 78.19 L 359.13 78.12 L 362.88 78.08 L 366.54 78.08 L 370.10 78.13 L 373.54 78.24 L 376.85 78.42 L 380.01 78.67 L 383.00 79.00 L 385.87 79.37 L 388.65 79.75 L 391.35 80.15 L 393.96 80.57 L 396.48 81.02 L 398.90 81.52 L 401.22 82.07 L 403.44 82.69 L 405.55 83.37 L 407.55 84.14 L 409.43 85.00 L 411.20 85.96 L 412.84 87.03 L 414.36 88.22 L 415.74 89.54 L 417.00 91.00 L 418.11 92.61 L 419.07 94.35 L 419.89 96.23 L 420.58 98.23 L 421.14 100.35 L 421.58 102.56 L 421.90 104.86 L 422.12 107.25 L 422.25 109.71 L 422.28 112.22 L 422.23 114.79 L 422.11 117.39 L 421.92 120.02 L 421.66 122.68 L 421.35 125.34 L 421.00 128.00 L 420.56 130.70 L 419.98 133.49 L 419.29 136.35 L 418.50 139.27 L 417.61 142.25 L 416.64 145.28 L 415.60 148.35 L 414.50 151.44 L 413.35 154.55 L 412.17 157.66 L 410.97 160.78 L 409.75 163.88 L 408.53 166.97 L 407.33 170.02 L 406.15 173.03 L 405.00 176.00 L 403.87 178.93 L 402.71 181.84 L 401.54 184.73 L 400.35 187.62 L 399.15 190.49 L 397.92 193.35 L 396.69 196.21 L 395.44 199.06 L 394.17 201.91 L 392.90 204.76 L 391.61 207.62 L 390.30 210.48 L 388.99 213.34 L 387.67 216.22 L 386.34 219.10 L 385.00 222.00 L 383.66 224.93 L 382.34 227.90 L 381.02 230.91 L 379.70 233.94 L 378.37 236.98 L 377.03 240.04 L 375.68 243.09 L 374.31 246.12 L 372.92 249.15 L 371.49 252.14 L 370.03 255.09 L 368.52 258.00 L 366.97 260.85 L 365.37 263.64 L 363.72 266.36 L 362.00 269.00 L 360.22 271.61 L 358.39 274.24 L 356.52 276.87 L 354.59 279.50 L 352.63 282.10 L 350.62 284.67 L 348.58 287.18 L 346.50 289.62 L 344.39 291.99 L 342.25 294.25 L 340.09 296.41 L 337.91 298.44 L 335.70 300.33 L 333.48 302.06 L 331.25 303.62 L 329.00 305.00 L 326.71 306.21 L 324.34 307.29 L 321.90 308.23 L 319.41 309.04 L 316.89 309.72 L 314.33 310.29 L 311.76 310.73 L 309.19 311.06 L 306.62 311.28 L 304.08 311.39 L 301.58 311.40 L 299.12 311.30 L 296.72 311.11 L 294.39 310.83 L 292.15 310.46 L 290.00 310.00 L 287.93 309.44 L 285.92 308.76 L 283.95 307.97 L 282.04 307.07 L 280.17 306.06 L 278.34 304.95 L 276.56 303.74 L 274.81 302.44 L 273.10 301.04 L 271.43 299.56 L 269.79 297.99 L 268.18 296.34 L 266.60 294.61 L 265.04 292.81 L 263.51 290.94 L 262.00 289.00 L 260.54 286.96 L 259.14 284.78 L 257.80 282.48 L 256.51 280.07 L 255.26 277.56 L 254.05 274.96 L 252.86 272.29 L 251.69 269.56 L 250.53 266.78 L 249.37 263.97 L 248.20 261.13 L 247.02 258.27 L 245.82 255.42 L 244.59 252.58 L 243.32 249.77 L 242.00 247.00 L 240.65 244.22 L 239.28 241.39 L 237.90 238.51 L 236.51 235.59 L 235.10 232.65 L 233.68 229.69 L 232.25 226.72 L 230.81 223.75 L 229.36 220.79 L 227.90 217.84 L 226.44 214.92 L 224.96 212.03 L 223.48 209.19 L 221.99 206.39 L 220.50 203.66 L 219.00 201.00 L 217.53 198.34 L 216.09 195.63 L 214.69 192.89 L 213.31 190.14 L 211.94 187.39 L 210.56 184.67 L 209.17 181.99 L 207.75 179.38 L 206.29 176.84 L 204.78 174.41 L 203.21 172.10 L 201.56 169.92 L 199.83 167.91 L 198.00 166.07 L 196.06 164.43 L 194.00 163.00 L 191.82 161.81 L 189.54 160.84 L 187.17 160.07 L 184.70 159.49 L 182.16 159.07 L 179.54 158.79 L 176.86 158.63 L 174.12 158.56 L 171.34 158.57 L 168.50 158.64 L 165.63 158.74 L 162.73 158.85 L 159.81 158.95 L 156.88 159.03 L 153.94 159.05 L 151.00 159.00 L 148.02 158.93 L 144.97 158.92 L 141.85 158.95 L 138.67 159.02 L 135.45 159.11 L 132.20 159.23 L 128.92 159.36 L 125.62 159.50 L 122.33 159.64 L 119.04 159.77 L 115.76 159.89 L 112.52 159.98 L 109.31 160.05 L 106.14 160.08 L 103.04 160.07 L 100.00 160.00 L 96.97 159.93 L 93.89 159.89 L 90.78 159.87 L 87.65 159.87 L 84.52 159.86 L 81.41 159.83 L 78.34 159.78 L 75.31 159.69 L 72.36 159.54 L 69.49 159.33 L 66.72 159.04 L 64.07 158.66 L 61.56 158.18 L 59.20 157.59 L 57.01 156.86 L 55.00 156.00 L 53.16 154.99 L 51.45 153.84 L 49.86 152.57 L 48.40 151.19 L 47.05 149.70 L 45.82 148.12 L 44.70 146.47 L 43.69 144.75 L 42.78 142.97 L 41.97 141.16 L 41.25 139.31 L 40.63 137.44 L 40.10 135.56 L 39.65 133.69 L 39.29 131.83 L 39.00 130.00 L 38.79 128.14 L 38.67 126.19 L 38.63 124.17 L 38.68 122.09 L 38.82 119.97 L 39.06 117.82 L 39.39 115.66 L 39.81 113.50 L 40.34 111.35 L 40.97 109.24 L 41.70 107.17 L 42.54 105.16 L 43.49 103.22 L 44.54 101.37 L 45.71 99.63 L 47.00 98.00 L 48.41 96.46 L 49.93 94.96 L 51.58 93.52 L 53.34 92.12 L 55.20 90.77 L 57.18 89.48 L 59.26 88.24 L 61.44 87.06 L 63.71 85.94 L 66.08 84.89 L 68.53 83.90 L 71.07 82.98 L 73.69 82.12 L 76.39 81.34 L 79.16 80.63 L 82.00 80.00 L 84.96 79.47 L 88.07 79.05 L 91.33 78.75 L 94.70 78.53 L 98.19 78.40 L 101.76 78.34 L 105.41 78.33 L 109.12 78.38 L 112.88 78.45 L 116.66 78.55 L 120.45 78.67 L 124.23 78.78 L 128.00 78.88 L 131.72 78.96 L 135.40 79.00 L 139.00 79.00" fill="none" stroke="#00AEEF" stroke-width="4" stroke-linecap="round" stroke-linejoin="round" />
</svg>
