<svg xmlns="http://www.w3.org/2000/svg" width="888" height="597" viewBox="0 0 888 597">
  <title>Clean bitmap trace route</title>
  <path id="track-route-clean-trace" d="M 435.50 493.50 L 437.50 493.50 L 439.50 493.50 L 441.50 493.50 L 443.50 493.50 L 445.50 493.50 L 447.50 493.50 L 449.50 493.50 L 451.50 493.50 L 453.50 493.50 L 455.50 493.50 L 457.50 493.50 L 459.50 493.50 L 461.50 493.50 L 463.50 493.50 L 465.50 493.50 L 467.50 493.50 L 469.50 493.50 L 471.50 493.50 L 473.50 493.50 L 475.50 493.50 L 477.50 493.50 L 479.50 493.50 L 481.50 493.50 L 483.50 493.50 L 485.50 493.50 L 487.50 493.50 L 489.50 493.50 L 491.50 493.50 L 493.50 493.50 L 495.50 493.50 L 497.50 493.50 L 499.50 493.50 L 501.50 493.50 L 503.50 493.50 L 505.50 493.50 L 507.50 493.50 L 509.50 493.50 L 511.50 493.50 L 513.50 493.50 L 515.50 493.50 L 517.50 493.50 L 519.50 493.50 L 521.50 493.50 L 523.50 493.50 L 525.50 493.50 L 527.50 493.50 L 529.50 493.50 L 531.50 493.50 L 532.50 493.50 L 533.50 494.50 L 535.50 494.50 L 537.50 494.50 L 538.50 495.50 L 540.50 495.50 L 542.50 495.50 L 544.50 495.50 L 546.50 495.50 L 548.50 495.50 L 550.50 495.50 L 552.50 495.50 L 553.50 495.50 L 554.50 496.50 L 556.50 496.50 L 557.50 496.50 L 558.50 497.50 L 560.50 497.50 L 562.50 497.50 L 563.50 497.50 L 564.50 498.50 L 566.50 498.50 L 568.50 498.50 L 570.50 498.50 L 571.50 498.50 L 572.50 499.50 L 574.50 499.50 L 576.50 499.50 L 578.50 499.50 L 579.50 500.50 L 581.50 500.50 L 583.50 500.50 L 585.50 500.50 L 587.50 500.50 L 589.50 500.50 L 591.50 500.50 L 592.50 501.50 L 594.50 501.50 L 595.50 501.50 L 596.50 502.50 L 598.50 502.50 L 600.50 502.50 L 602.50 502.50 L 604.50 502.50 L 606.50 502.50 L 608.50 502.50 L 610.50 502.50 L 612.50 502.50 L 613.50 502.50 L 614.50 501.50 L 616.50 501.50 L 617.50 500.50 L 619.50 500.50 L 620.50 500.50 L 621.50 499.50 L 622.50 499.50 L 623.50 498.50 L 624.50 498.50 L 626.50 496.50 L 628.50 494.50 L 629.50 494.50 L 631.50 492.50 L 633.50 490.50 L 633.50 489.50 L 635.50 487.50 L 635.50 485.50 L 636.50 484.50 L 636.50 482.50 L 636.50 480.50 L 636.50 478.50 L 636.50 476.50 L 636.50 474.50 L 636.50 472.50 L 636.50 470.50 L 636.50 468.50 L 636.50 466.50 L 636.50 464.50 L 636.50 462.50 L 636.50 460.50 L 636.50 458.50 L 636.50 456.50 L 636.50 454.50 L 635.50 453.50 L 635.50 452.50 L 634.50 451.50 L 634.50 450.50 L 633.50 449.50 L 633.50 448.50 L 631.50 446.50 L 630.50 445.50 L 630.50 444.50 L 629.50 443.50 L 629.50 441.50 L 628.50 440.50 L 628.50 438.50 L 626.50 436.50 L 626.50 434.50 L 625.50 433.50 L 625.50 431.50 L 625.50 429.50 L 625.50 427.50 L 625.50 425.50 L 625.50 423.50 L 625.50 421.50 L 625.50 419.50 L 625.50 417.50 L 625.50 415.50 L 625.50 413.50 L 625.50 411.50 L 625.50 410.50 L 623.50 408.50 L 623.50 407.50 L 622.50 406.50 L 622.50 404.50 L 622.50 403.50 L 621.50 402.50 L 621.50 400.50 L 621.50 399.50 L 620.50 398.50 L 620.50 396.50 L 620.50 394.50 L 620.50 392.50 L 620.50 390.50 L 619.50 389.50 L 619.50 387.50 L 619.50 385.50 L 619.50 383.50 L 619.50 382.50 L 618.50 381.50 L 618.50 379.50 L 618.50 377.50 L 618.50 376.50 L 616.50 374.50 L 616.50 373.50 L 615.50 372.50 L 615.50 370.50 L 615.50 368.50 L 615.50 367.50 L 614.50 366.50 L 614.50 364.50 L 614.50 362.50 L 614.50 361.50 L 613.50 360.50 L 613.50 358.50 L 613.50 356.50 L 613.50 354.50 L 613.50 353.50 L 612.50 352.50 L 612.50 350.50 L 612.50 349.50 L 611.50 348.50 L 611.50 346.50 L 610.50 345.50 L 610.50 343.50 L 610.50 341.50 L 609.50 340.50 L 609.50 338.50 L 608.50 337.50 L 606.50 337.50 L 605.50 337.50 L 604.50 336.50 L 604.50 335.50 L 603.50 334.50 L 603.50 332.50 L 602.50 331.50 L 601.50 331.50 L 599.50 329.50 L 599.50 327.50 L 599.50 325.50 L 598.50 324.50 L 598.50 322.50 L 596.50 320.50 L 596.50 318.50 L 596.50 316.50 L 596.50 315.50 L 594.50 313.50 L 592.50 311.50 L 592.50 309.50 L 592.50 307.50 L 592.50 306.50 L 591.50 305.50 L 591.50 303.50 L 591.50 301.50 L 591.50 299.50 L 591.50 297.50 L 589.50 295.50 L 589.50 293.50 L 589.50 291.50 L 589.50 289.50 L 589.50 287.50 L 589.50 285.50 L 589.50 283.50 L 590.50 282.50 L 591.50 282.50 L 592.50 281.50 L 592.50 279.50 L 592.50 277.50 L 594.50 275.50 L 594.50 273.50 L 594.50 272.50 L 595.50 271.50 L 595.50 269.50 L 595.50 267.50 L 595.50 266.50 L 596.50 265.50 L 596.50 263.50 L 596.50 261.50 L 597.50 260.50 L 597.50 259.50 L 599.50 257.50 L 600.50 256.50 L 600.50 255.50 L 601.50 254.50 L 601.50 253.50 L 602.50 252.50 L 602.50 250.50 L 602.50 248.50 L 603.50 247.50 L 603.50 245.50 L 604.50 244.50 L 604.50 243.50 L 605.50 242.50 L 605.50 240.50 L 605.50 238.50 L 605.50 237.50 L 606.50 236.50 L 606.50 235.50 L 608.50 233.50 L 608.50 231.50 L 608.50 230.50 L 609.50 229.50 L 609.50 228.50 L 610.50 227.50 L 610.50 226.50 L 611.50 225.50 L 611.50 224.50 L 612.50 223.50 L 612.50 221.50 L 612.50 219.50 L 612.50 217.50 L 612.50 215.50 L 612.50 213.50 L 612.50 211.50 L 612.50 209.50 L 612.50 207.50 L 611.50 206.50 L 611.50 204.50 L 611.50 203.50 L 610.50 202.50 L 610.50 200.50 L 610.50 198.50 L 610.50 197.50 L 609.50 196.50 L 609.50 195.50 L 607.50 193.50 L 607.50 191.50 L 607.50 190.50 L 606.50 189.50 L 605.50 189.50 L 603.50 187.50 L 603.50 186.50 L 602.50 185.50 L 602.50 183.50 L 602.50 182.50 L 600.50 180.50 L 598.50 178.50 L 598.50 176.50 L 596.50 174.50 L 594.50 172.50 L 594.50 171.50 L 592.50 169.50 L 592.50 168.50 L 590.50 166.50 L 589.50 165.50 L 589.50 164.50 L 588.50 163.50 L 588.50 162.50 L 586.50 160.50 L 584.50 158.50 L 582.50 156.50 L 580.50 154.50 L 579.50 154.50 L 577.50 152.50 L 575.50 152.50 L 574.50 151.50 L 573.50 151.50 L 572.50 150.50 L 571.50 150.50 L 570.50 149.50 L 568.50 149.50 L 566.50 149.50 L 564.50 149.50 L 562.50 149.50 L 560.50 149.50 L 558.50 149.50 L 556.50 149.50 L 555.50 149.50 L 554.50 150.50 L 552.50 150.50 L 550.50 152.50 L 548.50 154.50 L 548.50 155.50 L 547.50 156.50 L 547.50 157.50 L 546.50 158.50 L 546.50 160.50 L 546.50 162.50 L 546.50 164.50 L 546.50 166.50 L 546.50 168.50 L 546.50 170.50 L 547.50 171.50 L 547.50 172.50 L 548.50 173.50 L 548.50 174.50 L 550.50 176.50 L 552.50 178.50 L 554.50 180.50 L 556.50 182.50 L 558.50 182.50 L 559.50 183.50 L 560.50 183.50 L 561.50 184.50 L 562.50 184.50 L 563.50 185.50 L 565.50 185.50 L 566.50 185.50 L 567.50 186.50 L 569.50 186.50 L 571.50 186.50 L 573.50 186.50 L 575.50 186.50 L 577.50 186.50 L 579.50 186.50 L 581.50 186.50 L 583.50 186.50 L 584.50 186.50 L 586.50 184.50 L 588.50 184.50 L 589.50 184.50 L 590.50 183.50 L 592.50 183.50 L 593.50 183.50 L 595.50 181.50 L 597.50 179.50 L 598.50 178.50 L 598.50 177.50 L 600.50 175.50 L 602.50 173.50 L 603.50 173.50 L 604.50 172.50 L 606.50 172.50 L 608.50 170.50 L 608.50 168.50 L 609.50 167.50 L 609.50 165.50 L 611.50 163.50 L 611.50 161.50 L 612.50 160.50 L 612.50 159.50 L 613.50 158.50 L 613.50 156.50 L 615.50 154.50 L 615.50 152.50 L 615.50 150.50 L 615.50 148.50 L 615.50 146.50 L 615.50 144.50 L 615.50 142.50 L 615.50 140.50 L 615.50 138.50 L 615.50 136.50 L 615.50 135.50 L 614.50 134.50 L 614.50 133.50 L 612.50 131.50 L 612.50 129.50 L 612.50 128.50 L 611.50 127.50 L 611.50 125.50 L 609.50 123.50 L 609.50 122.50 L 608.50 121.50 L 608.50 120.50 L 606.50 118.50 L 604.50 116.50 L 602.50 114.50 L 602.50 113.50 L 600.50 111.50 L 599.50 110.50 L 598.50 110.50 L 597.50 109.50 L 596.50 109.50 L 595.50 108.50 L 594.50 108.50 L 593.50 107.50 L 592.50 107.50 L 591.50 106.50 L 590.50 106.50 L 589.50 105.50 L 588.50 105.50 L 587.50 104.50 L 585.50 104.50 L 583.50 104.50 L 581.50 104.50 L 580.50 103.50 L 578.50 103.50 L 577.50 102.50 L 575.50 102.50 L 574.50 101.50 L 572.50 101.50 L 570.50 101.50 L 568.50 101.50 L 566.50 101.50 L 564.50 101.50 L 562.50 101.50 L 560.50 101.50 L 558.50 101.50 L 556.50 101.50 L 555.50 101.50 L 554.50 100.50 L 552.50 100.50 L 550.50 100.50 L 549.50 99.50 L 547.50 99.50 L 545.50 99.50 L 543.50 99.50 L 541.50 99.50 L 539.50 99.50 L 537.50 99.50 L 535.50 99.50 L 533.50 99.50 L 531.50 99.50 L 529.50 99.50 L 527.50 99.50 L 525.50 99.50 L 523.50 99.50 L 521.50 99.50 L 519.50 99.50 L 518.50 100.50 L 517.50 100.50 L 516.50 101.50 L 514.50 101.50 L 513.50 101.50 L 512.50 102.50 L 510.50 102.50 L 509.50 102.50 L 508.50 103.50 L 506.50 103.50 L 504.50 105.50 L 503.50 106.50 L 502.50 106.50 L 501.50 107.50 L 500.50 107.50 L 499.50 108.50 L 498.50 108.50 L 497.50 109.50 L 496.50 109.50 L 494.50 111.50 L 493.50 112.50 L 491.50 112.50 L 490.50 112.50 L 489.50 113.50 L 488.50 113.50 L 486.50 115.50 L 485.50 115.50 L 483.50 117.50 L 481.50 119.50 L 480.50 119.50 L 478.50 121.50 L 476.50 123.50 L 475.50 124.50 L 475.50 125.50 L 474.50 126.50 L 474.50 127.50 L 472.50 129.50 L 471.50 130.50 L 471.50 131.50 L 469.50 133.50 L 468.50 134.50 L 468.50 136.50 L 467.50 137.50 L 467.50 139.50 L 467.50 141.50 L 467.50 143.50 L 467.50 145.50 L 467.50 147.50 L 468.50 148.50 L 468.50 149.50 L 470.50 151.50 L 470.50 153.50 L 470.50 154.50 L 471.50 155.50 L 471.50 157.50 L 472.50 158.50 L 473.50 158.50 L 474.50 159.50 L 474.50 160.50 L 475.50 161.50 L 475.50 163.50 L 475.50 164.50 L 476.50 165.50 L 476.50 167.50 L 476.50 169.50 L 476.50 170.50 L 475.50 171.50 L 475.50 173.50 L 475.50 175.50 L 475.50 177.50 L 475.50 178.50 L 473.50 180.50 L 472.50 181.50 L 472.50 183.50 L 472.50 185.50 L 470.50 187.50 L 470.50 188.50 L 468.50 190.50 L 466.50 190.50 L 464.50 190.50 L 463.50 190.50 L 461.50 192.50 L 459.50 192.50 L 458.50 193.50 L 456.50 193.50 L 454.50 195.50 L 452.50 195.50 L 450.50 195.50 L 448.50 195.50 L 447.50 195.50 L 446.50 196.50 L 445.50 196.50 L 444.50 197.50 L 442.50 197.50 L 441.50 198.50 L 439.50 198.50 L 437.50 198.50 L 436.50 198.50 L 435.50 199.50 L 433.50 199.50 L 432.50 199.50 L 431.50 200.50 L 430.50 200.50 L 429.50 201.50 L 427.50 201.50 L 425.50 201.50 L 423.50 201.50 L 422.50 201.50 L 421.50 202.50 L 419.50 202.50 L 418.50 202.50 L 417.50 203.50 L 416.50 203.50 L 415.50 204.50 L 414.50 204.50 L 413.50 205.50 L 411.50 205.50 L 409.50 205.50 L 407.50 205.50 L 405.50 205.50 L 404.50 206.50 L 402.50 206.50 L 401.50 206.50 L 400.50 207.50 L 399.50 207.50 L 398.50 208.50 L 396.50 208.50 L 394.50 208.50 L 392.50 208.50 L 390.50 208.50 L 388.50 208.50 L 386.50 208.50 L 384.50 208.50 L 382.50 208.50 L 380.50 208.50 L 378.50 208.50 L 377.50 207.50 L 376.50 207.50 L 374.50 205.50 L 373.50 205.50 L 372.50 204.50 L 370.50 204.50 L 368.50 204.50 L 366.50 204.50 L 365.50 203.50 L 363.50 203.50 L 361.50 201.50 L 359.50 201.50 L 357.50 201.50 L 355.50 201.50 L 353.50 201.50 L 352.50 200.50 L 350.50 200.50 L 348.50 200.50 L 346.50 200.50 L 345.50 200.50 L 344.50 199.50 L 342.50 199.50 L 340.50 199.50 L 338.50 199.50 L 337.50 199.50 L 336.50 200.50 L 334.50 200.50 L 332.50 200.50 L 330.50 200.50 L 328.50 200.50 L 326.50 200.50 L 325.50 200.50 L 324.50 201.50 L 322.50 201.50 L 321.50 202.50 L 319.50 202.50 L 317.50 202.50 L 315.50 202.50 L 313.50 202.50 L 312.50 202.50 L 310.50 204.50 L 308.50 204.50 L 306.50 206.50 L 304.50 206.50 L 302.50 206.50 L 300.50 206.50 L 298.50 206.50 L 297.50 206.50 L 296.50 207.50 L 294.50 207.50 L 292.50 209.50 L 290.50 209.50 L 288.50 209.50 L 286.50 209.50 L 284.50 209.50 L 282.50 209.50 L 280.50 209.50 L 278.50 209.50 L 277.50 209.50 L 276.50 208.50 L 275.50 208.50 L 274.50 207.50 L 272.50 207.50 L 270.50 207.50 L 268.50 207.50 L 267.50 206.50 L 265.50 206.50 L 264.50 205.50 L 262.50 205.50 L 261.50 205.50 L 260.50 204.50 L 259.50 204.50 L 257.50 202.50 L 256.50 202.50 L 255.50 201.50 L 253.50 201.50 L 252.50 200.50 L 251.50 200.50 L 250.50 199.50 L 248.50 199.50 L 246.50 197.50 L 244.50 197.50 L 243.50 196.50 L 242.50 196.50 L 241.50 195.50 L 239.50 195.50 L 238.50 195.50 L 237.50 194.50 L 236.50 194.50 L 234.50 192.50 L 233.50 191.50 L 232.50 191.50 L 231.50 190.50 L 229.50 190.50 L 227.50 190.50 L 226.50 189.50 L 224.50 189.50 L 223.50 188.50 L 221.50 188.50 L 219.50 188.50 L 217.50 188.50 L 215.50 188.50 L 213.50 188.50 L 212.50 189.50 L 210.50 189.50 L 209.50 190.50 L 207.50 190.50 L 206.50 191.50 L 204.50 191.50 L 202.50 193.50 L 200.50 195.50 L 199.50 196.50 L 198.50 196.50 L 196.50 198.50 L 194.50 200.50 L 193.50 201.50 L 193.50 202.50 L 192.50 203.50 L 192.50 205.50 L 191.50 206.50 L 191.50 207.50 L 190.50 208.50 L 190.50 210.50 L 189.50 211.50 L 189.50 213.50 L 188.50 214.50 L 188.50 215.50 L 186.50 217.50 L 186.50 219.50 L 185.50 220.50 L 185.50 222.50 L 185.50 224.50 L 184.50 225.50 L 184.50 227.50 L 183.50 228.50 L 183.50 229.50 L 182.50 230.50 L 182.50 232.50 L 181.50 233.50 L 181.50 234.50 L 179.50 236.50 L 179.50 238.50 L 179.50 239.50 L 178.50 240.50 L 178.50 242.50 L 178.50 244.50 L 178.50 245.50 L 177.50 246.50 L 177.50 247.50 L 175.50 249.50 L 175.50 250.50 L 174.50 251.50 L 174.50 253.50 L 174.50 254.50 L 176.50 256.50 L 176.50 258.50 L 176.50 260.50 L 176.50 261.50 L 177.50 262.50 L 179.50 262.50 L 180.50 263.50 L 182.50 263.50 L 183.50 264.50 L 185.50 264.50 L 187.50 264.50 L 189.50 264.50 L 191.50 264.50 L 193.50 264.50 L 195.50 264.50 L 196.50 264.50 L 197.50 263.50 L 198.50 263.50 L 199.50 262.50 L 200.50 262.50 L 201.50 261.50 L 203.50 261.50 L 204.50 260.50 L 206.50 260.50 L 207.50 260.50 L 208.50 259.50 L 209.50 259.50 L 210.50 258.50 L 211.50 258.50 L 213.50 256.50 L 215.50 256.50 L 217.50 256.50 L 219.50 256.50 L 220.50 256.50 L 222.50 254.50 L 223.50 253.50 L 225.50 253.50 L 227.50 251.50 L 229.50 251.50 L 231.50 251.50 L 233.50 251.50 L 235.50 251.50 L 236.50 251.50 L 237.50 250.50 L 238.50 250.50 L 240.50 248.50 L 242.50 248.50 L 244.50 248.50 L 246.50 248.50 L 248.50 248.50 L 250.50 248.50 L 252.50 250.50 L 253.50 251.50 L 255.50 251.50 L 257.50 251.50 L 259.50 251.50 L 261.50 251.50 L 263.50 251.50 L 265.50 251.50 L 267.50 251.50 L 269.50 251.50 L 271.50 251.50 L 273.50 251.50 L 275.50 251.50 L 276.50 251.50 L 277.50 252.50 L 279.50 252.50 L 281.50 252.50 L 283.50 252.50 L 284.50 253.50 L 286.50 253.50 L 288.50 253.50 L 289.50 253.50 L 291.50 255.50 L 293.50 257.50 L 295.50 259.50 L 295.50 260.50 L 296.50 261.50 L 297.50 261.50 L 299.50 263.50 L 301.50 265.50 L 301.50 266.50 L 303.50 268.50 L 304.50 268.50 L 306.50 270.50 L 306.50 271.50 L 307.50 272.50 L 307.50 273.50 L 309.50 275.50 L 309.50 276.50 L 310.50 277.50 L 310.50 279.50 L 310.50 280.50 L 311.50 281.50 L 311.50 282.50 L 312.50 283.50 L 312.50 285.50 L 312.50 287.50 L 312.50 289.50 L 312.50 291.50 L 312.50 293.50 L 312.50 295.50 L 312.50 297.50 L 312.50 299.50 L 312.50 301.50 L 312.50 303.50 L 312.50 305.50 L 312.50 307.50 L 312.50 308.50 L 311.50 309.50 L 311.50 311.50 L 311.50 313.50 L 311.50 315.50 L 311.50 317.50 L 311.50 319.50 L 311.50 321.50 L 310.50 322.50 L 310.50 324.50 L 310.50 326.50 L 310.50 327.50 L 309.50 328.50 L 309.50 330.50 L 309.50 332.50 L 309.50 334.50 L 309.50 336.50 L 309.50 338.50 L 309.50 340.50 L 309.50 342.50 L 309.50 344.50 L 309.50 346.50 L 309.50 348.50 L 309.50 350.50 L 309.50 352.50 L 309.50 354.50 L 309.50 356.50 L 309.50 358.50 L 309.50 359.50 L 308.50 360.50 L 308.50 362.50 L 308.50 364.50 L 307.50 365.50 L 307.50 367.50 L 306.50 368.50 L 306.50 370.50 L 306.50 372.50 L 306.50 373.50 L 305.50 374.50 L 305.50 376.50 L 305.50 378.50 L 305.50 379.50 L 303.50 381.50 L 301.50 383.50 L 299.50 385.50 L 297.50 387.50 L 296.50 387.50 L 295.50 388.50 L 293.50 388.50 L 292.50 389.50 L 290.50 389.50 L 289.50 390.50 L 288.50 390.50 L 286.50 392.50 L 284.50 392.50 L 283.50 393.50 L 281.50 393.50 L 280.50 394.50 L 279.50 394.50 L 277.50 396.50 L 276.50 396.50 L 275.50 397.50 L 274.50 397.50 L 273.50 398.50 L 271.50 398.50 L 270.50 399.50 L 268.50 399.50 L 267.50 400.50 L 266.50 400.50 L 264.50 402.50 L 262.50 402.50 L 261.50 403.50 L 259.50 403.50 L 258.50 404.50 L 257.50 404.50 L 256.50 405.50 L 255.50 405.50 L 254.50 406.50 L 253.50 406.50 L 252.50 407.50 L 251.50 407.50 L 250.50 408.50 L 249.50 408.50 L 248.50 409.50 L 247.50 409.50 L 246.50 410.50 L 244.50 410.50 L 243.50 411.50 L 241.50 411.50 L 239.50 413.50 L 238.50 414.50 L 236.50 414.50 L 235.50 414.50 L 234.50 415.50 L 232.50 415.50 L 230.50 417.50 L 229.50 417.50 L 228.50 418.50 L 227.50 418.50 L 226.50 419.50 L 224.50 419.50 L 223.50 419.50 L 222.50 420.50 L 221.50 420.50 L 220.50 421.50 L 218.50 421.50 L 216.50 423.50 L 215.50 423.50 L 213.50 425.50 L 211.50 425.50 L 210.50 426.50 L 208.50 426.50 L 206.50 428.50 L 205.50 428.50 L 203.50 430.50 L 202.50 430.50 L 200.50 432.50 L 200.50 433.50 L 198.50 435.50 L 196.50 437.50 L 196.50 439.50 L 195.50 440.50 L 195.50 442.50 L 195.50 444.50 L 195.50 446.50 L 195.50 448.50 L 195.50 450.50 L 195.50 452.50 L 195.50 454.50 L 195.50 456.50 L 195.50 457.50 L 196.50 458.50 L 196.50 460.50 L 198.50 462.50 L 198.50 463.50 L 199.50 464.50 L 199.50 465.50 L 201.50 467.50 L 202.50 467.50 L 203.50 468.50 L 204.50 468.50 L 206.50 470.50 L 208.50 472.50 L 210.50 472.50 L 211.50 473.50 L 212.50 473.50 L 213.50 474.50 L 215.50 474.50 L 217.50 474.50 L 219.50 474.50 L 221.50 474.50 L 223.50 474.50 L 225.50 474.50 L 227.50 474.50 L 229.50 474.50 L 231.50 474.50 L 233.50 474.50 L 235.50 474.50 L 237.50 474.50 L 239.50 474.50 L 241.50 474.50 L 243.50 474.50 L 245.50 474.50 L 247.50 474.50 L 248.50 475.50 L 250.50 475.50 L 252.50 475.50 L 254.50 475.50 L 256.50 475.50 L 257.50 475.50 L 258.50 476.50 L 259.50 475.50 L 261.50 475.50 L 263.50 475.50 L 265.50 475.50 L 267.50 475.50 L 269.50 475.50 L 271.50 475.50 L 273.50 475.50 L 275.50 475.50 L 277.50 475.50 L 279.50 475.50 L 281.50 475.50 L 283.50 475.50 L 285.50 475.50 L 287.50 475.50 L 289.50 475.50 L 290.50 475.50 L 291.50 474.50 L 293.50 474.50 L 295.50 474.50 L 297.50 474.50 L 299.50 474.50 L 301.50 474.50 L 303.50 474.50 L 305.50 474.50 L 307.50 474.50 L 309.50 474.50 L 311.50 474.50 L 313.50 474.50 L 315.50 474.50 L 317.50 474.50 L 319.50 474.50 L 321.50 474.50 L 323.50 474.50 L 325.50 474.50 L 327.50 474.50 L 329.50 474.50 L 330.50 475.50 L 331.50 475.50 L 332.50 476.50 L 334.50 476.50 L 336.50 476.50 L 338.50 478.50 L 340.50 478.50 L 341.50 479.50 L 343.50 479.50 L 344.50 480.50 L 345.50 480.50 L 346.50 481.50 L 348.50 481.50 L 349.50 481.50 L 351.50 476.50 L 351.50 476.50 L 352.50 476.50 L 352.50 477.50 L 353.50 477.50 L 353.50 477.50 L 354.50 477.50 L 354.50 477.50 L 356.50 477.50 L 356.50 478.50 L 357.50 478.50 L 357.50 478.50 L 358.50 478.50 L 358.50 478.50 L 359.50 478.50 L 359.50 478.50 L 360.50 479.50 L 361.50 479.50 L 361.50 479.50 L 362.50 479.50 L 362.50 479.50 L 363.50 479.50 L 363.50 479.50 L 364.50 480.50 L 364.50 480.50 L 366.50 480.50 L 366.50 480.50 L 367.50 480.50 L 367.50 480.50 L 368.50 481.50 L 368.50 481.50 L 370.50 481.50 L 370.50 481.50 L 371.50 481.50 L 371.50 481.50 L 372.50 482.50 L 372.50 482.50 L 373.50 482.50 L 373.50 482.50 L 375.50 482.50 L 375.50 482.50 L 376.50 483.50 L 376.50 483.50 L 377.50 483.50 L 377.50 483.50 L 378.50 483.50 L 378.50 483.50 L 379.50 483.50 L 380.50 484.50 L 380.50 484.50 L 381.50 484.50 L 381.50 484.50 L 382.50 484.50 L 382.50 484.50 L 383.50 484.50 L 383.50 485.50 L 385.50 485.50 L 385.50 485.50 L 386.50 485.50 L 386.50 485.50 L 387.50 485.50 L 387.50 486.50 L 388.50 486.50 L 388.50 486.50 L 390.50 486.50 L 390.50 486.50 L 391.50 486.50 L 391.50 486.50 L 392.50 487.50 L 393.50 487.50 L 393.50 487.50 L 394.50 487.50 L 394.50 487.50 L 395.50 487.50 L 395.50 487.50 L 397.50 487.50 L 397.50 488.50 L 398.50 488.50 L 398.50 488.50 L 400.50 488.50 L 400.50 488.50 L 401.50 488.50 L 401.50 488.50 L 402.50 489.50 L 402.50 489.50 L 404.50 489.50 L 404.50 489.50 L 405.50 489.50 L 405.50 489.50 L 407.50 489.50 L 407.50 490.50 L 408.50 490.50 L 408.50 490.50 L 410.50 490.50 L 410.50 490.50 L 411.50 490.50 L 411.50 490.50 L 412.50 490.50 L 412.50 491.50 L 414.50 491.50 L 414.50 491.50 L 415.50 491.50 L 415.50 491.50 L 417.50 491.50 L 417.50 491.50 L 418.50 492.50 L 418.50 492.50 L 419.50 492.50 L 419.50 492.50 L 421.50 492.50 L 421.50 492.50 L 422.50 492.50 L 422.50 493.50 L 424.50 493.50 L 424.50 493.50 L 425.50 493.50 L 425.50 493.50 L 426.50 493.50 L 426.50 493.50 L 427.50 493.50 L 428.50 494.50 L 428.50 494.50 L 429.50 494.50 L 429.50 494.50 L 430.50 494.50" fill="none" stroke="#00AEEF" stroke-width="4" stroke-linecap="round" stroke-linejoin="round" />
</svg>
