<svg id="svg" version="1.1" width="1280" height="720" xmlns="http://www.w3.org/2000/svg"><path d="M777.500 241.993 C 704.137 242.489,698.108 242.659,693.000 244.376 C 671.167 251.715,655.322 267.337,648.265 288.479 L 645.588 296.500 645.544 330.000 L 645.500 363.500 724.000 363.500 L 802.500 363.500 803.000 389.500 L 803.500 415.500 813.750 415.478 C 819.388 415.466,842.900 415.354,866.000 415.228 L 908.000 415.000 908.000 389.031 L 908.000 363.062 920.250 362.781 L 932.500 362.500 932.774 345.250 L 933.047 328.000 920.631 328.000 C 910.231 328.000,908.115 327.743,907.607 326.418 C 907.273 325.548,907.000 305.973,907.000 282.918 L 907.000 241.000 881.750 241.230 C 867.862 241.356,820.950 241.700,777.500 241.993 M364.064 243.000 C 363.651 243.275,363.580 282.425,363.906 330.000 L 364.500 416.500 395.500 416.550 C 412.550 416.577,435.837 416.432,447.250 416.226 L 468.000 415.853 468.000 390.926 C 468.000 369.842,468.223 366.000,469.447 366.000 C 470.243 366.000,477.780 371.030,486.197 377.178 C 494.614 383.326,504.733 390.638,508.685 393.428 C 512.636 396.218,521.279 402.441,527.891 407.258 L 539.913 416.015 602.170 415.758 L 664.427 415.500 644.627 401.000 C 633.737 393.025,623.833 385.825,622.618 385.000 C 621.403 384.175,614.600 379.225,607.502 374.000 L 594.594 364.500 610.047 364.000 L 625.500 363.500 625.445 330.500 C 625.390 297.819,625.365 297.426,622.828 289.833 C 616.243 270.130,602.296 254.450,585.165 247.489 C 570.889 241.688,572.544 241.761,464.158 242.147 C 409.520 242.341,364.478 242.725,364.064 243.000 M537.232 280.792 C 545.120 284.677,550.137 290.077,553.021 297.786 C 554.749 302.403,555.016 305.149,554.779 315.865 L 554.500 328.500 511.500 328.500 L 468.500 328.500 468.233 302.675 L 467.966 276.849 499.257 277.175 L 530.549 277.500 537.232 280.792 M803.000 302.500 L 803.000 328.000 759.500 328.000 L 716.000 328.000 716.000 315.535 C 716.000 297.836,719.101 289.857,728.642 283.005 C 736.410 277.427,738.515 277.140,772.250 277.067 L 803.000 277.000 803.000 302.500 M620.662 431.935 C 618.441 432.386,615.493 434.045,613.662 435.874 L 610.500 439.034 610.188 457.486 C 609.927 473.001,610.139 476.491,611.525 479.411 C 614.091 484.819,617.376 486.481,625.500 486.481 C 636.795 486.481,640.890 482.276,641.785 469.758 L 642.269 463.000 635.134 463.000 L 628.000 463.000 628.000 469.378 C 628.000 473.648,627.534 476.142,626.589 476.926 C 625.813 477.570,624.931 477.697,624.628 477.207 C 623.889 476.011,623.619 442.047,624.343 441.323 C 624.657 441.010,625.608 441.019,626.457 441.345 C 627.613 441.789,628.000 443.459,628.000 448.014 L 628.000 454.091 634.750 453.796 L 641.500 453.500 641.155 447.016 C 640.768 439.764,639.247 436.047,635.718 433.735 C 632.711 431.764,625.658 430.921,620.662 431.935 M460.912 434.280 C 459.052 435.534,456.991 437.640,456.333 438.959 C 454.357 442.922,453.746 454.776,454.809 468.518 L 455.812 481.479 459.118 484.240 C 463.023 487.500,469.238 487.963,474.256 485.368 C 476.438 484.239,477.528 484.085,477.789 484.868 C 478.002 485.506,480.310 486.000,483.077 486.000 C 487.627 486.000,487.957 485.835,487.568 483.750 C 487.337 482.512,487.115 475.988,487.074 469.250 L 487.000 457.000 479.000 457.000 L 471.000 457.000 471.000 460.893 C 471.000 463.085,471.546 464.995,472.250 465.265 C 473.820 465.867,473.714 475.686,472.120 477.280 C 469.718 479.682,468.826 476.045,468.348 461.888 C 467.813 446.071,468.342 441.000,470.526 441.000 C 472.038 441.000,472.783 443.206,473.230 449.000 C 473.497 452.462,473.549 452.499,478.000 452.378 C 488.046 452.105,487.222 452.698,486.502 446.250 C 485.594 438.118,484.293 435.367,480.507 433.570 C 475.314 431.106,465.071 431.477,460.912 434.280 M540.000 458.988 L 540.000 486.000 546.500 486.000 L 553.000 486.000 553.000 474.167 C 553.000 467.658,553.284 462.049,553.631 461.702 C 553.979 461.355,555.104 461.520,556.131 462.070 C 557.789 462.958,558.000 464.363,558.000 474.535 L 558.000 486.000 564.584 486.000 L 571.167 486.000 570.834 473.903 C 570.509 462.142,570.425 461.746,567.803 459.653 L 565.107 457.500 567.553 455.326 C 569.677 453.438,570.000 452.289,570.000 446.623 C 570.000 438.991,568.744 435.660,565.269 434.077 C 563.889 433.448,557.638 432.718,551.379 432.454 L 540.000 431.975 540.000 458.988 M580.477 433.037 C 579.764 434.192,574.004 478.891,574.002 483.296 L 574.000 486.091 580.750 485.796 C 585.239 485.599,587.542 485.081,587.625 484.250 C 587.694 483.563,587.806 481.650,587.875 480.000 C 587.978 477.520,588.423 477.000,590.443 477.000 C 592.601 477.000,592.921 477.494,593.193 481.250 L 593.500 485.500 600.250 485.796 C 605.622 486.031,607.000 485.795,607.000 484.638 C 607.000 481.634,600.051 433.892,599.479 432.966 C 598.669 431.656,581.291 431.720,580.477 433.037 M647.000 458.467 L 647.000 485.000 659.000 485.000 L 671.000 485.000 671.000 480.000 L 671.000 475.000 666.000 475.000 L 661.000 475.000 661.000 469.057 L 661.000 463.115 665.250 462.807 L 669.500 462.500 669.500 458.000 L 669.500 453.500 665.250 453.193 L 661.000 452.885 661.000 447.943 L 661.000 443.000 665.552 443.000 L 670.105 443.000 669.802 437.750 L 669.500 432.500 658.250 432.217 L 647.000 431.934 647.000 458.467 M676.000 458.379 C 676.000 473.021,676.337 485.026,676.750 485.057 C 681.612 485.425,689.018 485.391,689.076 485.000 C 689.117 484.725,689.263 479.441,689.400 473.259 C 689.537 467.076,689.934 461.733,690.282 461.385 C 690.629 461.037,691.608 461.019,692.457 461.345 C 693.694 461.820,694.025 463.929,694.125 471.969 C 694.194 477.486,694.362 482.450,694.500 483.000 C 694.638 483.550,694.806 484.337,694.875 484.750 C 695.045 485.766,706.345 485.710,707.096 484.690 C 708.051 483.392,707.120 463.093,706.011 461.020 C 705.456 459.984,704.043 458.831,702.871 458.459 C 700.802 457.802,700.824 457.715,703.620 455.484 C 706.297 453.347,706.500 452.696,706.497 446.238 C 706.494 439.061,704.987 434.655,702.109 433.409 C 701.224 433.026,694.987 432.498,688.250 432.236 L 676.000 431.759 676.000 458.379 M725.766 433.224 C 725.509 433.926,725.343 436.300,725.399 438.500 C 725.497 442.379,725.613 442.509,729.250 442.810 C 731.313 442.981,733.089 443.206,733.199 443.310 C 733.308 443.415,733.645 452.894,733.949 464.376 L 734.500 485.253 740.143 485.251 C 743.247 485.251,746.285 484.942,746.893 484.566 C 747.644 484.102,748.000 477.320,748.000 463.501 L 748.000 443.121 751.750 442.810 L 755.500 442.500 755.500 437.500 L 755.500 432.500 740.867 432.224 C 729.710 432.013,726.123 432.251,725.766 433.224 M757.706 432.627 C 757.361 432.972,757.762 434.884,758.596 436.877 C 762.151 445.368,766.133 463.730,766.702 474.250 L 767.283 485.000 773.642 485.000 L 780.000 485.000 780.000 478.110 C 780.000 467.823,783.933 448.801,788.556 436.730 C 789.350 434.656,790.000 432.744,790.000 432.480 C 790.000 432.216,787.075 432.000,783.500 432.000 C 779.925 432.000,777.000 432.251,777.000 432.558 C 777.000 434.777,774.643 447.770,774.042 448.864 C 773.598 449.673,772.571 446.516,771.522 441.114 L 769.752 432.000 764.043 432.000 C 760.903 432.000,758.051 432.282,757.706 432.627 M792.000 458.430 L 792.000 484.861 794.250 485.180 C 795.487 485.356,798.398 485.343,800.717 485.152 L 804.934 484.804 805.217 474.152 L 805.500 463.500 810.500 463.229 C 820.220 462.702,822.011 460.201,821.978 447.203 C 821.943 433.778,819.731 432.000,803.066 432.000 L 792.000 432.000 792.000 458.430 M827.000 458.500 C 827.000 475.417,827.362 485.045,828.000 485.125 C 828.550 485.194,829.675 485.250,830.500 485.250 C 831.325 485.250,836.299 485.194,841.552 485.125 L 851.105 485.000 850.802 479.750 C 850.472 474.017,851.211 474.536,842.750 474.092 C 841.309 474.016,841.000 473.039,841.000 468.557 L 841.000 463.115 845.250 462.807 L 849.500 462.500 849.500 457.500 L 849.500 452.500 845.250 452.193 L 841.000 451.885 841.000 447.443 L 841.000 443.000 845.500 443.000 L 850.000 443.000 850.000 437.500 L 850.000 432.000 838.500 432.000 L 827.000 432.000 827.000 458.500 M885.997 437.250 C 884.759 440.137,882.173 445.875,880.250 450.000 C 872.991 465.564,872.000 468.147,872.000 471.495 L 872.000 474.932 882.750 475.216 L 893.500 475.500 893.805 480.250 L 894.110 485.000 900.500 485.000 L 906.890 485.000 907.195 480.250 C 907.474 475.900,907.732 475.473,910.250 475.184 C 912.789 474.891,913.000 474.527,913.000 470.434 C 913.000 466.174,912.882 466.000,910.000 466.000 L 907.000 466.000 907.000 449.000 L 907.000 432.000 897.623 432.000 L 888.246 432.000 885.997 437.250 M364.000 459.500 L 364.000 486.000 370.500 486.000 L 377.000 486.000 377.000 474.000 C 377.000 462.788,377.128 462.000,378.941 462.000 C 380.009 462.000,381.106 462.363,381.380 462.806 C 381.654 463.250,381.965 468.312,382.070 474.056 C 382.175 479.800,382.431 484.950,382.639 485.500 C 382.854 486.067,385.610 486.353,389.009 486.161 L 395.000 485.822 395.000 474.312 L 395.000 462.802 391.975 459.977 C 389.134 457.323,389.072 457.112,390.953 456.515 C 394.778 455.301,396.021 442.646,392.890 436.794 C 391.508 434.212,385.601 433.012,374.250 433.006 L 364.000 433.000 364.000 459.500 M399.626 433.797 C 399.228 434.440,399.470 482.583,399.884 485.250 C 399.948 485.663,402.925 486.000,406.500 486.000 L 413.000 486.000 413.000 459.500 L 413.000 433.000 406.559 433.000 C 403.016 433.000,399.896 433.359,399.626 433.797 M418.000 459.500 L 418.000 486.000 430.453 486.000 C 437.302 486.000,443.964 485.518,445.257 484.929 C 449.780 482.868,450.129 481.070,450.054 460.164 C 449.960 433.566,449.566 433.040,429.750 433.015 L 418.000 433.000 418.000 459.500 M493.000 459.500 L 493.000 486.000 505.052 486.000 L 517.105 486.000 516.802 480.750 L 516.500 475.500 511.750 475.195 L 507.000 474.890 507.000 469.445 L 507.000 464.000 511.000 464.000 C 513.200 464.000,515.049 463.663,515.108 463.250 C 515.167 462.837,515.280 460.475,515.358 458.000 L 515.500 453.500 511.250 453.193 L 507.000 452.885 507.000 448.443 L 507.000 444.000 511.500 444.000 L 516.000 444.000 516.000 438.500 L 516.000 433.000 504.500 433.000 L 493.000 433.000 493.000 459.500 M556.800 442.200 C 557.460 442.860,558.000 445.020,558.000 447.000 C 558.000 450.704,556.584 453.000,554.300 453.000 C 553.396 453.000,553.000 451.376,553.000 447.667 C 553.000 441.101,554.108 439.508,556.800 442.200 M693.964 443.405 C 694.467 444.727,694.536 447.090,694.117 448.655 C 693.245 451.916,690.086 453.149,689.844 450.323 C 689.411 445.270,689.372 442.428,689.726 441.750 C 690.570 440.136,693.096 441.123,693.964 443.405 M809.965 442.934 C 811.111 445.076,811.332 449.971,810.393 452.418 C 810.059 453.288,808.709 454.000,807.393 454.000 C 805.114 454.000,805.000 453.689,805.000 447.500 C 805.000 441.705,805.213 441.000,806.965 441.000 C 808.045 441.000,809.395 441.870,809.965 442.934 M381.500 447.500 C 381.500 451.924,381.241 452.537,379.250 452.820 C 377.145 453.119,377.000 452.776,377.000 447.500 C 377.000 442.224,377.145 441.881,379.250 442.180 C 381.241 442.463,381.500 443.076,381.500 447.500 M436.393 455.895 C 437.355 470.310,436.616 476.266,433.800 476.803 C 432.269 477.095,432.069 475.596,431.800 461.814 C 431.439 443.398,431.607 441.779,433.827 442.200 C 435.237 442.468,435.640 444.622,436.393 455.895 M893.643 465.690 C 893.411 465.922,890.964 465.974,888.204 465.806 L 883.188 465.500 888.344 453.500 L 893.500 441.500 893.783 453.384 C 893.938 459.920,893.876 465.458,893.643 465.690 M591.912 462.250 C 591.989 466.408,591.743 467.000,589.939 467.000 C 587.991 467.000,587.913 466.604,588.496 459.750 C 589.449 448.556,590.201 446.453,591.090 452.500 C 591.494 455.250,591.864 459.637,591.912 462.250 " stroke="none" fill="black" fill-rule="evenodd"/></svg>